<svg width="46" height="46" viewBox="0 0 46 46" fill="none" xmlns="http://www.w3.org/2000/svg">
<path d="M33.0096 23.7543V35.4475C33.0096 36.0651 32.8059 36.6366 32.4622 37.0966C31.9585 37.7705 31.1558 38.2064 30.2508 38.2064H6.63091C5.72471 38.2064 4.92086 37.7705 4.41831 37.0966C4.38151 37.0472 4.34586 36.9966 4.31251 36.9437C4.02361 36.4982 3.8702 35.9785 3.87091 35.4475V11.8276C3.87091 10.3027 5.10601 9.06885 6.63091 9.06885H30.2508C31.2697 9.06885 32.1599 9.62085 32.637 10.4431L28.8397 14.2414L20.4355 22.6468L14.3141 16.5254C13.2331 15.4444 11.0722 15.4444 9.99351 16.5254L7.47271 19.0451C7.08976 19.428 6.84251 19.9467 6.73211 20.5043C6.52741 21.5198 6.77466 22.6686 7.47271 23.3668L18.2747 34.1687C19.3545 35.2486 21.5142 35.2486 22.5952 34.1687L25.116 31.6479L33.0096 23.7543Z" fill="#EEEEEE"/>
<path d="M41.3183 15.4443L33.0096 23.7543L25.116 31.6479L22.5952 34.1687C21.5142 35.2486 19.3545 35.2486 18.2746 34.1687L7.47269 23.3668C6.77464 22.6687 6.52739 21.5197 6.73209 20.5043C6.84249 19.9465 7.08974 19.428 7.47269 19.0451L9.99349 16.5254C11.0722 15.4444 13.233 15.4444 14.314 16.5254L20.4355 22.6467L28.8397 14.2414L32.637 10.4431L34.477 8.60421C35.558 7.52321 37.7188 7.52321 38.7975 8.60421L41.3183 11.1239C41.6127 11.4193 41.8278 11.7943 41.9612 12.2059C42.3188 13.303 42.1038 14.6588 41.3183 15.4443Z" fill="#FFC458"/>
</svg>
